<?xml version="1.0" encoding="utf-8"?>
<!-- Generator: Adobe Illustrator 16.0.4, SVG Export Plug-In . SVG Version: 6.00 Build 0)  -->
<!DOCTYPE svg PUBLIC "-//W3C//DTD SVG 1.1//EN" "http://www.w3.org/Graphics/SVG/1.1/DTD/svg11.dtd">
<svg version="1.1" id="Layer_1" xmlns="http://www.w3.org/2000/svg" xmlns:xlink="http://www.w3.org/1999/xlink" x="0px" y="0px"
	 width="386.211px" height="228px" viewBox="0 0 386.211 228" enable-background="new 0 0 386.211 228" xml:space="preserve">
<g>
	<g>
		<path fill="none" stroke="#808285" stroke-width="6" stroke-miterlimit="10" d="M2.077,64.361v-47.91c0-6.62,5.38-12,12-12h47.91
			h147.191c6.629,0,12,5.38,12,12v47.91c0,6.63-5.371,12-12,12H73.986"/>
		<path fill="none" stroke="#808285" stroke-width="6" stroke-miterlimit="10" d="M61.986,4.451h-47.91c-6.62,0-12,5.38-12,12v47.91
			v147.188c0,6.632,5.38,12,12,12h47.91c6.63,0,12-5.368,12-12V76.361"/>
	</g>
	
		<rect x="78.49" y="86.467" transform="matrix(-0.9996 -0.0273 0.0273 -0.9996 460.0203 187.08)" fill="#6699CC" width="305.594" height="7.864"/>
	<line fill="none" stroke="#808285" stroke-width="6" stroke-miterlimit="10" x1="153.767" y1="4.451" x2="153.767" y2="76.361"/>
	<line fill="none" stroke="#808285" stroke-width="6" stroke-miterlimit="10" x1="73.986" y1="4.451" x2="73.986" y2="76.361"/>
</g>
<text transform="matrix(1 0.0039 -0.0039 1 85.2231 151.8037)" fill="#7194CD" font-family="'MyriadPro-Regular'" font-size="59.7049">Diving</text>
<text transform="matrix(1 0.0039 -0.0039 1 85.0024 208.3848)" fill="#7194CD" font-family="'MyriadPro-Regular'" font-size="59.7049">Heights</text>
</svg>
